<svg width="40" height="40" viewBox="0 0 40 40" fill="none" xmlns="http://www.w3.org/2000/svg">
<rect width="40" height="40" rx="10" fill="#C5E7F6"/>
<path fill-rule="evenodd" clip-rule="evenodd" d="M13.5 9.75C11.4289 9.75 9.75 11.4289 9.75 13.5V19.25H30.25V13.5C30.25 11.4289 28.5711 9.75 26.5 9.75H13.5ZM30.25 20.75H9.75V26.5C9.75 28.5711 11.4289 30.25 13.5 30.25H26.5C28.5711 30.25 30.25 28.5711 30.25 26.5V20.75ZM21 14.25C20.5858 14.25 20.25 14.5858 20.25 15C20.25 15.4142 20.5858 15.75 21 15.75H25C25.4142 15.75 25.75 15.4142 25.75 15C25.75 14.5858 25.4142 14.25 25 14.25H21ZM14.7109 14.75C14.7109 13.9216 15.3825 13.25 16.2109 13.25C17.0394 13.25 17.7109 13.9216 17.7109 14.75C17.7109 15.5784 17.0394 16.25 16.2109 16.25C15.3825 16.25 14.7109 15.5784 14.7109 14.75ZM16.2109 23.2139C15.3825 23.2139 14.7109 23.8854 14.7109 24.7139C14.7109 25.5423 15.3825 26.2139 16.2109 26.2139C17.0394 26.2139 17.7109 25.5423 17.7109 24.7139C17.7109 23.8854 17.0394 23.2139 16.2109 23.2139ZM20.25 25C20.25 24.5858 20.5858 24.25 21 24.25H25C25.4142 24.25 25.75 24.5858 25.75 25C25.75 25.4142 25.4142 25.75 25 25.75H21C20.5858 25.75 20.25 25.4142 20.25 25Z" fill="#1B8CBE"/>
</svg>
