<svg width="40" height="40" viewBox="0 0 40 40" fill="none" xmlns="http://www.w3.org/2000/svg">
<rect width="40" height="40" rx="10" fill="#C5E7F6"/>
<path d="M20.0572 9.75C17.8665 9.74999 16.0314 9.74998 14.688 9.93059C13.3114 10.1157 12.2191 10.5027 11.3609 11.3609C10.5027 12.2191 10.1157 13.3114 9.93059 14.688C9.83382 15.4079 9.7889 16.2688 9.76805 17.25H30.232C30.2111 16.2688 30.1662 15.4079 30.0694 14.688C29.8843 13.3114 29.4973 12.2191 28.6391 11.3609C27.7809 10.5027 26.6886 10.1157 25.312 9.93059C23.9686 9.74998 22.2479 9.74999 20.0572 9.75Z" fill="#1B8CBE"/>
<path d="M30.2484 18.75H20.75V21.25H30.2488C30.25 20.8706 30.25 20.4751 30.25 20.063V20.0523C30.25 19.6028 30.25 19.1683 30.2484 18.75Z" fill="#1B8CBE"/>
<path d="M23.8441 25.25L26.3037 22.7901C26.3166 22.777 26.3298 22.7637 26.3434 22.75H20.75V25.25H23.8441Z" fill="#1B8CBE"/>
<path d="M22.4918 26.75H20.75V30.2496C21.0936 30.2492 21.4272 30.2481 21.7503 30.2456L21.7501 30.0797C21.7491 29.2407 21.7482 28.5036 21.9787 27.8042C22.0493 27.5901 22.1357 27.3815 22.2372 27.1802C22.3126 27.0305 22.398 26.8879 22.4918 26.75Z" fill="#1B8CBE"/>
<path d="M19.25 26.75V30.2498C17.3852 30.2479 15.8865 30.2305 14.688 30.0694C13.3114 29.8843 12.2191 29.4973 11.3609 28.6391C10.8262 28.1043 10.4743 27.4787 10.2403 26.75H19.25Z" fill="#1B8CBE"/>
<path d="M9.92241 25.25H19.25V22.75H9.76669C9.78636 23.7 9.82918 24.5287 9.92241 25.25Z" fill="#1B8CBE"/>
<path d="M19.25 21.25H9.75121C9.75 20.8688 9.75 20.4715 9.75 20.0574C9.75 19.6062 9.75 19.1698 9.75157 18.75H19.25V21.25Z" fill="#1B8CBE"/>
<path fill-rule="evenodd" clip-rule="evenodd" d="M26.609 24.1017C26.8482 23.9661 27.1518 23.9661 27.391 24.1017C27.7942 24.3303 28.6852 24.8741 29.4789 25.6323C30.2672 26.3853 31 27.3886 31 28.532C31 30.4473 29.2091 32 27 32C24.7909 32 23 30.4473 23 28.532C23 27.3886 23.7328 26.3853 24.5211 25.6323C25.3148 24.8741 26.2058 24.3303 26.609 24.1017Z" fill="#1B8CBE"/>
</svg>
