<svg width="146" height="174" viewBox="0 0 146 174" fill="none" xmlns="http://www.w3.org/2000/svg">
<g clip-path="url(#clip0_97_1146)">
<rect width="146" height="174" rx="20" fill="#FFEBD2"/>
<path d="M20.2696 45.5001C11.4567 43.0961 4.11268 42.7957 0 43.0962L0 166H146L146 90.5749C124.262 89.6734 97.7593 80.9265 83.1348 73.4465C70.7968 67.136 59.34 62.0275 47.2958 56.3181C37.3078 50.6086 25.2636 46.7022 20.2696 45.5001Z" fill="#FFE4C4"/>
<path d="M20.2696 64.5001C11.4567 62.0961 4.11268 61.7957 0 62.0962L0 185H146L146 109.575C124.262 108.673 97.7593 99.9265 83.1348 92.4465C70.7968 86.136 59.34 81.0275 47.2958 75.3181C37.3078 69.6086 25.2636 65.7022 20.2696 64.5001Z" fill="#FFDDB4"/>
<path d="M20.2696 84.5001C11.4567 82.0961 4.11268 81.7957 0 82.0962L0 205H146L146 129.575C124.262 128.673 97.7593 119.926 83.1348 112.447C70.7968 106.136 59.34 101.028 47.2958 95.3181C37.3078 89.6086 25.2636 85.7022 20.2696 84.5001Z" fill="#FFD4A0"/>
</g>
<defs>
<clipPath id="clip0_97_1146">
<rect width="146" height="174" rx="20" fill="white"/>
</clipPath>
</defs>
</svg>
