<svg width="40" height="40" viewBox="0 0 40 40" fill="none" xmlns="http://www.w3.org/2000/svg">
<rect width="40" height="40" rx="10" fill="#C5E7F6"/>
<path fill-rule="evenodd" clip-rule="evenodd" d="M15.0601 15.1271C15.3292 14.9576 15.6708 14.9576 15.9399 15.1271C16.3935 15.4129 17.3959 16.0927 18.2888 17.0404C19.1756 17.9816 20 19.2357 20 20.6651C20 23.0592 17.9853 25 15.5 25C13.0147 25 11 23.0592 11 20.6651C11 19.2357 11.8245 17.9816 12.7112 17.0404C13.6041 16.0927 14.6065 15.4129 15.0601 15.1271Z" fill="#1B8CBE"/>
<path d="M27.5 21.2732V13.3333C27.5 11.4924 26.1568 10 24.5 10C22.8432 10 21.5 11.4924 21.5 13.3333V21.2731C20.5794 22.1887 20 23.5192 20 25C20 27.7614 22.0147 30 24.5 30C26.9853 30 29 27.7614 29 25C29 23.5192 28.4206 22.1887 27.5 21.2732ZM24.5 28.3333C22.8432 28.3333 21.5 26.8409 21.5 25C21.5 24.0376 21.8671 23.1448 22.5004 22.515L23 22.0182V13.3333C23 12.4129 23.6716 11.6666 24.5 11.6666C25.3285 11.6666 26 12.4128 26 13.3333V22.0182L26.4997 22.515C27.133 23.1448 27.5001 24.0376 27.5001 25C27.5 26.8409 26.1568 28.3333 24.5 28.3333Z" fill="#1B8CBE"/>
<path d="M23.75 16.6667H25.25V26.6667H23.75V16.6667Z" fill="#1B8CBE"/>
<path d="M24.5 27.5C25.7426 27.5 26.75 26.3807 26.75 25C26.75 23.6193 25.7426 22.5 24.5 22.5C23.2574 22.5 22.25 23.6193 22.25 25C22.25 26.3807 23.2574 27.5 24.5 27.5Z" fill="#1B8CBE"/>
</svg>
